<svg xmlns="http://www.w3.org/2000/svg" version="1.1" xmlns:xlink="http://www.w3.org/1999/xlink" xmlns:svgjs="http://svgjs.dev/svgjs" width="1440" height="560" preserveAspectRatio="none" viewBox="0 0 1440 560">
    <g mask="url(&quot;#SvgjsMask1112&quot;)" fill="none">
        <path d="M -478.41403553879957,357 C -420.81,322.8 -305.61,188.2 -190.41403553879957,186 C -75.21,183.8 -17.61,358.4 97.58596446120043,346 C 212.79,333.6 270.39,87.4 385.58596446120043,124 C 500.79,160.6 558.39,513.2 673.5859644612004,529 C 788.79,544.8 846.39,242.8 961.5859644612004,203 C 1076.79,163.2 1153.9,340 1249.5859644612005,330 C 1345.27,320 1401.92,188.4 1440,153" stroke="rgba(20, 159, 121, 0.53)" stroke-width="2"></path>
        <path d="M -436.5194019874042,230 C -378.92,252.2 -263.72,345.2 -148.5194019874042,341 C -33.32,336.8 24.28,185.4 139.4805980125958,209 C 254.68,232.6 312.28,466.2 427.4805980125958,459 C 542.68,451.8 600.28,208.4 715.4805980125958,173 C 830.68,137.6 888.28,264.6 1003.4805980125958,282 C 1118.68,299.4 1204.18,236.8 1291.4805980125957,260 C 1378.78,283.2 1410.3,370.4 1440,398" stroke="rgba(37, 173, 207, 0.45)" stroke-width="2"></path>
        <path d="M -392.04638146335725,87 C -334.45,131 -219.25,305.6 -104.04638146335725,307 C 11.15,308.4 68.75,52.6 183.95361853664275,94 C 299.15,135.4 356.75,499.8 471.95361853664275,514 C 587.15,528.2 644.75,188.6 759.9536185366428,165 C 875.15,141.4 932.75,384.6 1047.9536185366428,396 C 1163.15,407.4 1257.54,239 1335.9536185366428,222 C 1414.36,205 1419.19,293.2 1440,311" stroke="rgba(37, 173, 207, 0.45)" stroke-width="2"></path>
        <path d="M -21.22385695810641,194 C 36.38,255.6 151.58,490.8 266.7761430418936,502 C 381.98,513.2 439.58,249.6 554.7761430418936,250 C 669.98,250.4 727.58,525.6 842.7761430418936,504 C 957.98,482.4 1015.58,186.4 1130.7761430418936,142 C 1245.98,97.6 1303.58,295.2 1418.7761430418936,282 C 1533.98,268.8 1702.53,69.8 1706.7761430418936,76 C 1711.02,82.2 1493.36,265.6 1440,313" stroke="rgba(35, 28, 195, 0.58)" stroke-width="2"></path>
        <path d="M -302.3229963174152,283 C -244.72,250.2 -129.52,91.8 -14.322996317415175,119 C 100.88,146.2 158.48,392.6 273.6770036825848,419 C 388.88,445.4 446.48,236.6 561.6770036825849,251 C 676.88,265.4 734.48,514 849.6770036825849,491 C 964.88,468 1022.48,147.4 1137.6770036825849,136 C 1252.88,124.6 1365.21,432.6 1425.6770036825849,434 C 1486.14,435.4 1437.14,201.2 1440,143" stroke="rgba(20, 159, 121, 0.53)" stroke-width="2"></path>
    </g>
    <defs>
        <mask id="SvgjsMask1112">
            <rect width="1440" height="560" fill="#ffffff"></rect>
        </mask>
    </defs>
</svg>