<svg width="244" height="328" viewBox="0 0 244 328" fill="none" xmlns="http://www.w3.org/2000/svg">
<path fill-rule="evenodd" clip-rule="evenodd" d="M30.637 48.5C16.1281 48.5 4.36621 60.2618 4.36621 74.7708V123.271C4.36621 135.548 14.3186 145.5 26.5954 145.5V145.5C38.8723 145.5 48.8247 155.452 48.8247 167.729V169.75C48.8247 183.143 59.6818 194 73.0747 194H168.054C182.563 194 194.325 182.238 194.325 167.729V167.729C194.325 153.22 182.563 141.458 168.054 141.458H88.9079C71.2348 141.458 56.9079 127.131 56.9079 109.458V74.7708C56.9079 60.2619 45.146 48.5 30.637 48.5V48.5Z" fill="black"/>
<path fill-rule="evenodd" clip-rule="evenodd" d="M218.574 278.958C205.181 278.958 194.324 289.815 194.324 303.208V303.208C194.324 316.601 183.467 327.458 170.074 327.458H75.095C60.5861 327.458 48.8242 315.696 48.8242 301.187V301.187C48.8242 286.678 60.5861 274.917 75.095 274.917H161.283C177.299 274.917 190.283 261.933 190.283 245.917V204.187C190.283 189.678 202.045 177.917 216.554 177.917V177.917C231.062 177.917 242.824 189.678 242.824 204.187V254.708C242.824 268.101 231.967 278.958 218.574 278.958V278.958Z" fill="black"/>
<path fill-rule="evenodd" clip-rule="evenodd" d="M195.366 24.25C195.366 10.8571 184.509 0 171.116 0H70.8242C57.0171 0 45.8242 11.1929 45.8242 25V27.5417C45.8242 41.3488 57.0171 52.5417 70.8242 52.5417H163.033C176.426 52.5417 187.283 63.3988 187.283 76.7917V76.7917C187.283 90.1846 198.14 101.042 211.533 101.042H218.866C232.673 101.042 243.866 89.8488 243.866 76.0417V72.7501C243.866 59.3571 233.009 48.5 219.616 48.5V48.5C206.223 48.5 195.366 37.6429 195.366 24.25V24.25Z" fill="black"/>
<rect y="234.458" width="56" height="53" rx="26.5" fill="black"/>
<rect x="49" y="48" width="145" height="127" fill="black"/>
<path fill-rule="evenodd" clip-rule="evenodd" d="M125.935 59.6001C96.7974 59.6001 75.0527 81.2221 75.0527 105.667C75.0527 130.112 96.7974 151.734 125.935 151.734C150.065 151.734 169.125 136.906 174.964 117.926C170.339 124.793 162.107 129.363 152.722 129.363C138.257 129.363 126.531 118.507 126.531 105.116C126.531 91.7246 138.257 80.8687 152.722 80.8687C161.649 80.8687 169.532 85.0032 174.261 91.3167C167.706 73.3501 149.171 59.6001 125.935 59.6001Z" fill="#EBEBE1"/>
<path fill-rule="evenodd" clip-rule="evenodd" d="M200.58 64C200.58 44.1178 184.462 28 164.58 28H79.4334L79.3708 28.0001H36.0001C31.5818 28.0001 28.0001 31.5818 28.0001 36.0001V51.1751C28.0001 55.5934 31.5818 59.1751 36.0001 59.1751H43.754C43.5426 60.7533 43.4334 62.3639 43.4334 64V137.483C43.4334 157.366 59.5512 173.483 79.4334 173.483H164.58C184.462 173.483 200.58 157.366 200.58 137.483V64ZM162.356 39.6907C177.267 39.6907 189.356 51.779 189.356 66.6907V136.092C189.356 151.004 177.267 163.092 162.356 163.092H83.0616C68.15 163.092 56.0616 151.004 56.0616 136.092V66.6907C56.0616 51.779 68.15 39.6907 83.0617 39.6907H162.356Z" fill="#EBEBE1"/>
</svg>
