<svg width="243" height="427" viewBox="0 0 243 427" fill="none" xmlns="http://www.w3.org/2000/svg">
<rect x="161" y="116" width="82" height="70" rx="25" fill="black"/>
<path fill-rule="evenodd" clip-rule="evenodd" d="M218.574 378.042C205.181 378.042 194.324 388.899 194.324 402.292V402.292C194.324 415.685 183.467 426.542 170.074 426.542H75.095C60.5861 426.542 48.8242 414.78 48.8242 400.271V400.271C48.8242 385.762 60.5861 374 75.095 374H161.283C177.299 374 190.283 361.016 190.283 345V303.271C190.283 288.762 202.045 277 216.554 277V277C231.062 277 242.824 288.762 242.824 303.271V353.792C242.824 367.185 231.967 378.042 218.574 378.042V378.042Z" fill="black"/>
<rect y="333.542" width="56" height="53" rx="26.5" fill="black"/>
<rect x="3" y="57.1982" width="203.752" height="219.838" rx="44" fill="black"/>
<path fill-rule="evenodd" clip-rule="evenodd" d="M132.783 114.083C103.645 114.083 81.9004 135.705 81.9004 160.151C81.9004 184.596 103.645 206.218 132.783 206.218C156.913 206.218 175.972 191.389 181.811 172.409C177.187 179.277 168.955 183.847 159.569 183.847C145.104 183.847 133.378 172.991 133.378 159.599C133.378 146.208 145.104 135.352 159.569 135.352C168.496 135.352 176.38 139.487 181.108 145.8C174.553 127.833 156.019 114.083 132.783 114.083Z" fill="#EBEBE1"/>
<path fill-rule="evenodd" clip-rule="evenodd" d="M207.428 129.483C207.428 109.601 191.31 93.4834 171.428 93.4834H86.2811L86.2184 93.4835H42.8477C38.4295 93.4835 34.8477 97.0652 34.8477 101.483V116.658C34.8477 121.077 38.4295 124.658 42.8477 124.658H50.6016C50.3902 126.237 50.2811 127.847 50.2811 129.483V202.967C50.2811 222.849 66.3988 238.967 86.2811 238.967H171.428C191.31 238.967 207.428 222.849 207.428 202.967V129.483ZM169.203 105.174C184.115 105.174 196.203 117.262 196.203 132.174V201.575C196.203 216.487 184.115 228.575 169.203 228.575H89.9093C74.9976 228.575 62.9093 216.487 62.9093 201.575V132.174C62.9093 117.262 74.9976 105.174 89.9093 105.174H169.203Z" fill="#EBEBE1"/>
<path fill-rule="evenodd" clip-rule="evenodd" d="M166.89 14C166.89 6.26801 173.158 0 180.89 0H197.88C205.612 0 211.88 6.26802 211.88 14V28.5006C211.88 36.2326 205.612 42.5006 197.88 42.5006H193.744C186.012 42.5006 179.744 48.7686 179.744 56.5006V60.8011C179.744 68.5331 173.476 74.8011 165.744 74.8011H146C138.268 74.8011 132 68.5331 132 60.8011V46.3005C132 38.5685 138.268 32.3005 146 32.3005H152.89C160.622 32.3005 166.89 26.0325 166.89 18.3005V14Z" fill="black"/>
</svg>
