<svg width="299" height="362" viewBox="0 0 299 362" fill="none" xmlns="http://www.w3.org/2000/svg">
<circle cx="230.5" cy="228.5" r="68.5" fill="black"/>
<path fill-rule="evenodd" clip-rule="evenodd" d="M113 14C113 6.26801 106.732 0 99 0H78C70.268 0 64 6.26801 64 14V36C64 43.732 70.268 50 78 50H85C92.732 50 99 56.268 99 64V74C99 81.732 105.268 88 113 88H137C144.732 88 151 81.732 151 74V52C151 44.268 144.732 38 137 38H127C119.268 38 113 31.732 113 24V14Z" fill="black"/>
<rect y="66" width="264" height="296" rx="44" fill="black"/>
<path fill-rule="evenodd" clip-rule="evenodd" d="M186.666 161C155.37 161 130 186.37 130 217.666C130 248.962 155.37 274.332 186.666 274.332C214.777 274.332 238.107 253.863 242.564 227.017C238.513 237.839 228.076 245.543 215.84 245.543C200.086 245.543 187.314 232.772 187.314 217.018C187.314 201.263 200.086 188.492 215.84 188.492C227.634 188.492 237.756 195.649 242.1 205.857C236.667 180.229 213.912 161 186.666 161Z" fill="#EBEBE1"/>
<path fill-rule="evenodd" clip-rule="evenodd" d="M267.964 167C267.964 147.118 251.847 131 231.964 131H132.81L132.782 131H88.0001C83.5818 131 80.0001 134.582 80.0001 139V159.676C80.0001 164.094 83.5818 167.676 88.0001 167.676H96.8099V266.154C96.8099 286.037 112.928 302.154 132.81 302.154H231.964C251.847 302.154 267.964 286.037 267.964 266.154V167ZM228.739 144.753C243.651 144.753 255.739 156.842 255.739 171.753V262.929C255.739 277.841 243.651 289.929 228.739 289.929H137.563C122.651 289.929 110.563 277.841 110.563 262.929V171.753C110.563 156.842 122.651 144.753 137.563 144.753H228.739Z" fill="#EBEBE1"/>
</svg>
